# xmcd
#
# Track frame offsets:
#   150
#   5096
#   23906
#   38895
#   54305
#   74572
#   93861
#   112120
#   128883
#   148085
#   165875
#   180783
#   201667
#
# Disc length: 2944 seconds
#
# Revision: 0
# Processed by: cddbd v1.5.1PL2 Copyright (c) Steve Scherf et al.
# Submitted via: GXTranscoder 2.0.1939
#
DISCID=b20b7e0d
DTITLE=amine - au dela des reves
DYEAR=1900
DGENRE=Alternative
TTITLE0=intro
TTITLE1=ma vie
TTITLE2=j'voulais
TTITLE3=my girl
TTITLE4=finiki
TTITLE5=si j'avais su que
TTITLE6=femmes
TTITLE7=6ieme sens
TTITLE8=win
TTITLE9=had lila
TTITLE10=kindir
TTITLE11=le chemin
TTITLE12=sobri
EXTD=
EXTT0=
EXTT1=
EXTT2=
EXTT3=
EXTT4=
EXTT5=
EXTT6=
EXTT7=
EXTT8=
EXTT9=
EXTT10=
EXTT11=
EXTT12=
PLAYORDER=
